<svg width="22" height="17" viewBox="0 0 22 17" fill="none" xmlns="http://www.w3.org/2000/svg">
<path fill-rule="evenodd" clip-rule="evenodd" d="M21.236 1.90599C20.463 2.22799 19.632 2.44299 18.761 2.54099C19.651 2.04099 20.334 1.24899 20.656 0.306986C19.822 0.768986 18.9 1.10499 17.918 1.28699C17.133 0.500986 16.012 0.0109863 14.773 0.0109863C12.393 0.0109863 10.462 1.81999 10.462 4.04999C10.462 4.36699 10.5 4.67599 10.574 4.97099C6.99203 4.80199 3.81603 3.19399 1.69003 0.750986C1.31903 1.34799 1.10703 2.04099 1.10703 2.78199C1.10703 4.18199 1.86803 5.41999 3.02403 6.14399C2.31803 6.12199 1.65403 5.94099 1.07203 5.63799C1.07203 5.65599 1.07203 5.67099 1.07203 5.68999C1.07203 7.64699 2.55703 9.27899 4.52903 9.64999C4.16803 9.74199 3.78603 9.78999 3.39403 9.78999C3.11603 9.78999 2.84603 9.76599 2.58303 9.71999C3.13103 11.323 4.72303 12.492 6.60903 12.525C5.13403 13.608 3.27603 14.253 1.25603 14.253C0.908027 14.253 0.565027 14.234 0.228027 14.197C2.13503 15.342 4.40103 16.012 6.83503 16.012C14.763 16.012 19.098 9.85599 19.098 4.51899C19.098 4.34299 19.093 4.16999 19.085 3.99599C19.927 3.42599 20.658 2.71499 21.236 1.90599Z" fill="white"/>
</svg>
